<svg width="1024" height="1024" viewBox="0 0 1024 1024" fill="none" xmlns="http://www.w3.org/2000/svg">
<path d="M799.061 315.929C834.407 315.929 863.061 344.582 863.061 379.929V814C863.061 849.346 834.407 878 799.061 878H364.99C329.644 878 300.99 849.346 300.99 814V708.071H659.01C694.356 708.071 723.01 679.417 723.01 644.071V315.929H799.061ZM307.992 350.792V350.793V350.792ZM326.698 328.643V328.644V328.643Z" fill="#ECC700"/>
<path d="M659.01 146C694.356 146 723.01 174.654 723.01 210V315.929H364.99C329.643 315.929 300.99 344.583 300.99 379.929V708.071H224.939C189.592 708.071 160.939 679.418 160.939 644.071V210C160.939 174.654 189.593 146 224.939 146H659.01Z" fill="#379600"/>
<path d="M435.439 454.736C435.439 434.18 454.283 420.334 471.195 428.466L603.886 492.265C624.535 502.194 624.535 534.878 603.886 544.806L471.195 608.605C454.283 616.737 435.439 602.892 435.439 582.335V454.736Z" fill="#014AA0"/>
</svg>
